<svg id="Layer_1" class="interactiveMap" data-name="Layer 1" xmlns="http://www.w3.org/2000/svg" viewBox="0 0 978.9419 1028.8815"><defs><style>.cls-1{fill:#2e3192;}</style></defs><title>map</title><path id="Ukraine" class="cls-1" d="M1171.1375,702.553c1.2933,3.2146,1.2933,3.2146,3.9006,5.5289,3.5072-1.6786,3.513-5.1778,3.4172-8.1063-.2193-6.7046,3.9627-9.5031,9.2254-11.4355a27.0329,27.0329,0,0,1,9.2972-1.5921c2.1835-.0035,4.6234.4181,6.505-.3869,7.3-3.1233,15.3452-3.3971,22.77-6.2767,7.7353,1.4742,12.23,4.798,15.9413,11.8435-2.319,10.2878-2.3,17.6384,11.6061,16.99,4.6241,3.8112,10.3965,6.8167,9.4748,14.7164-.3008,2.5785,1.7838,4.9527,4.8314,6.4857,5.7035-.3526,11.6677.2467,16.0442,4.5813,4.8614-.8027,7.6478-4.5342,12.5363-5.2993,6.9792-.1937,7.646,8.0142,13.4295,11.7462,10.9935.1322,21.6054,4.9819,32.2751,9.5811a8.97,8.97,0,0,1,4.8,4.3075c.1823,2.5226-1.9527,3.7623-3.1586,5.48-2.9885,4.2581-4.1853,8.9641-2.347,13.7928,1.9923,5.2329,1.0905,9.9376-1.4093,15.7935-12.6206-.2165-23.7338,3.6391-28.9166,17.2749-8.13,4.1712-17.0924,6.5939-25.6305,9.5379-8.8786,3.0613-17.9091,6.01-26.7049,9.32-6.3568,2.3921-11.0557,7.53-12.7566,15.1834,6.74,2.2692,9.4365,9.2286,15.9336,11.4859,6.499,2.2578,12.52-3.7954,19.1058-1.1272-2.4588,6.18-4.9415,6.9043-17.1493,5.0778a100.27,100.27,0,0,1-31.4127,13.9814c-3.4317-4.6409.1794-10.212-3.4077-14.2783-3.32-3.7636-8.11-5.1285-12.64-8.2272,5.2569-4.5235,14.002-3.9551,16.5348-12.4114-7.8767-6.8185-18.4821-2.4958-26.8417-6.6585-1.1072-2.22,2.6182-2.8572,1.2637-5.9983-8.8666-8.8515-18.6782-2.164-28.13-.3748-7.0623,15.48-26.54,28.8538-40.2118,27.0405,6.1115-7.9067,9.5641-16.939,16.4514-24.45,4.4721,3.5872,9.0955,3.8051,14.2512.6514-5.5054-8.5231-5.3366-20.1665-15.4343-26.2195-.3232-11.501-2.2-13.8542-13.5855-17.6848-4.8355-1.6269-9.6372-3.4482-14.69-4.0829-9.8608-1.2386-19.13-.3267-27.4776,6.2964-6.5922,5.23-14.8047,7.0015-24.0724,7.74-4.3878-4.5442-10.7512-4.0455-17.0768-4.0137a56.05,56.05,0,0,1-17.163-2.7926c-11.01-3.4807-12.9251-9.0541-7.0019-19.1447,1.7329-1.8743,4.44-.32,6.2807-2.1508.4589-4.0913-1.9613-7.7891-2.2809-12.5377,5.54-8.72,13.7405-15.3762,22.506-21.934,2.4151-5.504,1.6277-10.9392-1.48-16.3641-2.1417-3.7384-4.3237-7.6618-2.447-12.4549,7.9028-5.4987,16.3228-9.0843,26.3364-8.4916,7.9846.4726,16.0413-.2991,23.9536,1.4651.9464.2111,2.1291.0112,2.8444.5125,10.82,7.5822,24.0145,4.6558,35.6046,8.37l7.5813-3.1012-.2929-.0719c5.8047,4.735,12.5605,3.3886,19.1669,2.9979Z" transform="translate(-448.351 -21.6589)"/><path id="Belgium" class="cls-1" d="M710.8619,737.45l5.7718-3.3783c1.1479,6.3494,4.3583,10.9512,8.6729,14.8364,2.556.1337,5.2336,1.5375,7.5484-.6038,1.159-11.3966,1.159-11.3966,6.6786-16.25,1.6092-7.0343-4.0069-8.9608-8.6413-11.59-.7745-9.8723-9.1687-12.1795-15.5278-16.2967a16.2105,16.2105,0,0,0-3.22.341c-8.2385,2.7491-16.16,5.6124-25.4039,3.46-5.2937-1.2327-8.5913,3.753-8.1869,10.2015h7.6115a26.5032,26.5032,0,0,0,12.7812,10.8368c1.9234.8484,3.5825,3.825,4.4918,6.39Z" transform="translate(-448.351 -21.6589)"/><path id="Germany" class="cls-1" d="M740.9368,739.0642l3.2808-9.2387c-7.8041-10.676-4.1458-23.2054-2.6914-35.999,5.1511-3.8462,14.3284-4.1921,14.3337-14.0086a4.3111,4.3111,0,0,0-4.684-3.462l.0446.0363c.28-1.1428.2226-3.0069.89-3.3185,7.8972-3.6864,7.0744-10.7554,7.0549-17.5261-.009-3.1237-1.0508-6.2387-.062-9.6741,3.9958-2.2452,8.3319-.8852,12.7206-.9678,3.0243,2.8534,6.1672,5.622,10.6047,3.5235,2.5-2.6376-.19-5.9123,1.5182-8.5531,9.3583-2.2829,14.141,8.6836,24.0171,8.1067-9.0819-6.48-14.9954-14.6326-20.8586-23.2061.1741-2.2553,4.1379-1.1919,4.1443-2.3641.5681-5.8063-5.3294-6.4056-4.967-11.0565a31.631,31.631,0,0,1,18.1762,3.6039c2.1139,3.1236-1.3372,4.0751-.6491,6.2532,6.7153,2.7784,13.6054,5.2838,21.3146,4.48.5218,4.1381-4.3776,3.9055-3.7305,8.1892,2.4036,3.6867,7.0467,3.166,11.9989,3.0859,6.4492-6.6907,15.1351-9.7212,24.0388-12.8809,6.59,2.51,11.663,9.1017,20.036,7.4293,8.2827,10.0117,9.4013,20.4957,3.2936,31.7836.4865,1.01.6843,2.1027,1.3377,2.677,11.2331,9.8743,11.4936,24.002,14.1729,37.0805,1.3219,6.4525-3.4605,11.5433-11.3183,13.6682a114.3759,114.3759,0,0,0-30.4521,13.5012c-6.9394,4.3043-7.62,7.4293-2.9925,14.3166,4.4476,6.62,9.1637,13.0217,16.0188,17.604a26.6077,26.6077,0,0,1,7.6347,7.9627c-3.97,6.6037-12.7905,7.95-16.0447,14.4647-1.6163,4.7407,1.6652,8.3489,1.6528,13.1529-7.7317-3.6715-14.9057-1.6761-22.2192.03-7.3056,1.7043-14.7707,2.7185-22.1543,4.0974a11.8261,11.8261,0,0,1-7.724-1.433c-12.8356-6.5746-26.0947-8.3266-39.99-3.8151-.82.2663-1.8436-.0933-3.209-.1939-.7592-11.83,8.6556-19.69,11.2633-30.6247-9.8854-4.0715-20.3261-6.5844-29.4933-12.2031-3.1659-4.3144.1086-11.4878-6.2324-14.4563Z" transform="translate(-448.351 -21.6589)"/><path id="Spain" class="cls-1" d="M653.3362,912.7862l2.4466,4.9007c8.6994-.5293,17.2065,6.8855,25.7764-.4386,3.5963,3.5852,2.55,7.2023.4552,10.6349-2.47,4.0476-6.2383,6.7586-10.4383,8.82-2.1674,1.0637-4.5167,1.7571-6.6832,2.8225-6.7314,3.31-16.1442,2.6412-20.47,8.6257-7.7519,10.7232-16.6891,20.6448-23.5868,32.0069l6.4506,14.9271c-4.17,8.0332-12.8126,12.8586-13.3352,23.049-8.6737-.04-13.3994,5.6257-18.45,10.8895a18.7318,18.7318,0,0,1-13.5123,6.0691c-9.7121.251-19.3691,1.1759-29.0328,2.2919-9.8059,1.1325-18.5017,3.69-23.6086,12.7482-4.555.1456-6.5562-2.886-8.0139-5.8015-4.6285-9.257-11.3476-16.1332-20.9546-20.1425-.8344-.3483-1.4221-1.2879-2.0157-1.85-2.4288-6.1,3.9975-8.454,5.1365-12.95.2072-3.09-2.4014-5.2676-2.6837-8.3318.02-3.7427,3.6125-6.154,4.1-9.7714-.1759-4.1176-4.1209-6.6672-4.3019-11.2171,6.1706-7.0117,5.9375-16.4326,7.7089-25.2148.922-4.5711,1.5258-9.1063,5.6095-12.1583a10.8953,10.8953,0,0,0,3.7405-6.0292,2.9988,2.9988,0,0,0-.1513-.7581c-6.3259-12.3122-7.0271-12.5905-20.5649-8.1991-5.0521,1.6387-8.6381.7742-14.7155-3.5355H472.1057a57.3137,57.3137,0,0,0-6.2073-17.4361c-1.5514-2.6491.0458-5.139,3.1632-6.9546,6.0469.8222,11.859.0294,13.7261-7.2465,5.0076-3.5551,9.937-3.4981,14.8722-1.2424,2.9472,1.3471,6.0948,2.4985,9.13,2.116,18.1527-2.2878,35.4679,4.7584,53.4983,4.4275A190.2671,190.2671,0,0,1,593.0127,899.6c2.6623.4138,5.5472.3721,7.5552,2.242,8.8858,8.2752,20.0229,9.0628,31.22,9.69C638.7824,911.9241,645.8734,910.785,653.3362,912.7862Z" transform="translate(-448.351 -21.6589)"/><path id="Poland" class="cls-1" d="M978.7523,750.78c-1.9-4.5378-4.7351-.4229-7.8672-1.091-4.7823-4.7151-11.0638-8.7235-17.4749-12.5708-6.2808-3.769-13.2032-5.9227-19.492-8.3336-3.5746.2577-1.23,3.7-4.5,4.8-2.5255.2021-5.153-1.5369-7.11-4.5421-1.0132-1.8332,2.1336-2.8375.3866-5.3976-7.4669-3.189-16.0406-6.007-23.0379-12.7438-2.3313-15.782-1.8612-33.0381-15.6971-47.1591,4.45-7.1192,7.5333-15.7528,3.8619-24.4944,2.8077-4.4367,6.64-5.5449,10.3592-6.416,11.4511-2.6822,21.577-8.3871,32.0183-13.43a59.1,59.1,0,0,1,20.2336-5.6726c2.4331-.23,4.8436-.64,7.07.802,6.6011,12.1782,10.4077,13.0223,25.0974,11.78a289.5248,289.5248,0,0,1,62.8794,1.0335c5.08,11.5223,7.8681,23.4964,9.4512,35.7383.6612,5.1131-4.6115,7.6758-6.358,11.8485l.1868-.1868-6.6149,4.3675c7.7878,4.3116,9.8158,10.6934,9.7393,18.4924a42.0913,42.0913,0,0,0,4.8458,19.5675c1.3064,2.5652,2.692,5.2149,1.8341,8.304-7.0093,10.0574-19.57,15.1505-24.6012,27.047l2.8759,8.5064c-15.9638-6.788-31.1875-15.438-46.8559-3.8754-3.6145-.4221-5.3769-3.4243-8.4054-3.5531l.0913.12c.049-1.1071-.4185-1.6952-1.5867-1.5792l.15.15c.1065-1.145-.4061-1.6737-1.5585-1.5653Z" transform="translate(-448.351 -21.6589)"/><path id="United_Kingdom" data-name="United Kingdom" class="cls-1" d="M536.494,557.9129c-2.976,1.2194-5.0649,3.6168-7.5162,5.5507-3.8737,3.056-4.8962,2.8344-8.9-1.0274a3.0128,3.0128,0,0,1,1.8047-2.101c.85-.349,1.7147-.6606,2.4645-.9472-1.4924-8.791,4.4578-14.34,7.6981-20.9788-.806-2.2357-3.93-1.8317-4.8311-4.2145-1.1328-8.7777-.6215-9.6261,8.8491-14.1135,1.985-5.6743,2.8117-12.0247,6.3527-18.2139,9.8716.4365,20.1846-1.9106,31.8884,2.2949-10.3939,8.2857-18.4545,16.8752-20.3987,30.45,13.4252-5.582,26.846-8.4288,42.51-4.5489-6.2512,14.933-11.27,29.5224-26.7289,37.2669,2.7774,2.3678,5.4835-.1138,8.6294.9068-4.2936,4.8621-10.8549,3.985-15.4139,8.2831,3.4945,3.3731,7.7574,3.4538,11.9028,3.3235a25.6057,25.6057,0,0,1,25.6144,18.302c1.0166,3.4924,2.1571,6.96,2.9533,10.5031,1.4276,6.3537,4.7013,10.5212,11.0675,13.1593,11.3137,4.6884,11.9624,8.2168,4.7871,17.7636-.7134.9492-1.6744,1.77-1.643,3.7185,3.5388,2.6494,8.4755,3.6094,12.0612,6.9551,5.19,4.8422,5.43,6.4821.6263,11.6086-1.1307,1.2067-2.5041,2.3351-2.5547,4.3433,1.2858,2.6753,3.9534,2.1685,6.6343,2.6713,3.849-2.6423,8.0442-4.3476,13.3206-2.9965,4.9167,1.259,9.5492,2.2707,10.9835,7.9706,1.2245,4.8661-1.5048,13.2626-6.4144,15.1865-6.9065,2.7064-9.6865,8.7525-14.39,13.5832,3.8318,5.273,9.9138,2.4094,14.868,5.18a27.8651,27.8651,0,0,1-13.9946,9.0168c-5.689,1.5246-11.5283,1.4885-17.3563,1.6639-6.7938.2045-13.59.4682-20.37.9229-3.5474.2379-7.544-.3793-8.79,3.12-6.7312,2.0544-11.0836-3.84-17.2265-1.9689-5.9074,1.7991-7.8557,6.7753-11.5,11.4211-8.8209-3.7845-17.3491-2.3857-26.02,3.4324,4.1821-14.2483,17.1655-25.4238,29.7209-26.7268,9.7158-1.0083,14.25-4.78,16.1876-13.4673l.4029.058-.2971.1163c-4.76,2.664-8.6267,7.2521-14.8354,6.8613-8.438-6.9755-17.8824-8.1641-28.2983-5.0575-1.6754-3.1816-1.6754-3.1816-1.2863-8.1142,8.82-3.9963,19.3148-6.858,20.966-19.4756-.6406-3.4491-1.685-7.0529-5.992-8.2452,4.0933-8.3684,8.0915-9.0751,21.671-4.22,2.1445-.6528,3.9362-1.73,4.6385-4.5148l-4.0573-6.5488c2.0644-5.821,4.0763-11.6075.4778-17.4284-1.7261-2.5477-5.1257-1.3451-7.0615-3.1308-3.9782-7.4808-3.0485-10.8673,5.241-18.8314-2.9825-2.052-6.037-1.1428-10.2943-.6008l-2.0565,3.5793c-5.3357,1.69-8.8111.3676-11.9186-.4038-2.9013-.0318-2.1826,3.3879-4.485,3.6816a9.2654,9.2654,0,0,1-4.9144-5.2876c-.0835-6.1465,5.177-10.6991,5.8067-17.39a14.3516,14.3516,0,0,1-.7576-11.2672c-5.37-.154-9.6489-2.4854-14.71-1.8112-.9412-5.0576-.6849-9.5489,3.2519-13.4009a7.8851,7.8851,0,0,0,2.2835-5.2295c.15-.3582.3011-.7161.4959-1.1786Z" transform="translate(-448.351 -21.6589)"/><path id="Belarus" class="cls-1" d="M1096.864,607.7849c4.1418-2.9782,10.3016-2.8256,12.4452-7.1181,1.2261-3.6331-1.4581-5.0116-1.4839-7.4073a15.3569,15.3569,0,0,1,4.8707-8.7381c8.1656,1.4855,15.5389-1.2353,20.3435-8.9176l18.4525,4.3245c3.1278,1.9083,1.2143,5.1767,3.6518,7.2182,13.716-7.9957,20.5158,1.5833,27.3133,11.5227.9483,3.5411.5214,6.9725-2.0135,9.2321,3.78,12.2325,11.3176,21.78,18.525,32.8944,2.1094,1.7688,6.1633.1289,10.0284,1.8281.8848,2.7028,1.8811,5.8459,4.3255,8.3482-4,5.24-8.7653,7.3591-14.7992,5.382-2.662-.8723-5.1364-1.8637-7.429.3978-2.5358,2.5016-1.3594,5.2488-.4773,8.1176,1.6937,5.5085,3.7149,11.0082,3.0985,17.4018-8.7746,4.2748-19.3679,7.08-18.7144,19.2347-1.5077,1.924-2.7909.54-3.8638,1.047l.15.1151c-5.6885-5.4776-12.6487-2.8246-19.1669-2.9979l.2929.0719c-8.8725-2.9306-18.35-.6916-27.279-3.1918-1.85-.5181-3.8711-.55-5.6249-1.2675-19.3551-7.9141-38.8161-8.7211-58.4153-1.0176-1.8594.7308-3.55,1.54-5.4665.1459-1.5567-2.3872.0593-5.2412-1.3519-8.47-2.201-2.9433-7.98-5.0427-5.5163-11.1968l-.1868.1868a10.8583,10.8583,0,0,0,6.2892-1.9749c7.625-11.3909-2.7191-23.3315.2261-34.5727,2.8725-2.2651,5.5907-1.17,8.1673-1.165,4.8858.01,9.2093-.2458,12.6742-4.98,2.8116-3.8413,8.1843-3.5312,13.1864-4.1594.801-7.3408,5.8469-13.13,7.669-20.2222Z" transform="translate(-448.351 -21.6589)"/><path id="Romania" class="cls-1" d="M1037.019,791.664a24.4918,24.4918,0,0,1,15.6384-.4922c4.9978,1.4007,10.1618.2367,15.6881.8608l5.3751,3.68c12.5628-.331,22.7875-6.807,32.8651-11.1139a9.2091,9.2091,0,0,1,5.4869,3.7037c11.7213,15.122,21.7274,30.9483,20.7624,51.2192a19.0865,19.0865,0,0,0,.0871,2.182c.8592,12.7372,5.9457,15.8287,17.5514,10.6716,3.6911-1.64,3.6911-1.64,8.6965.8072,1.0606,4.1473-1.8968,6.0175-3.7086,7.3981-3.4006,1.9885-4.6566-1.5223-7.6452-.6633-3.7078,7.7385-7.0188,16.1046-8.6708,24.53-2.4209,2.43-5.0955,1.165-7.3573,1.8709l.1441.1117c-.4388-3.4394-3.1032-4.924-5.8308-5.8095-9.9744-3.2388-19.7726-3.7971-29.6305,1.18-13.5352,6.8337-27.8158,7.5972-42.4277,3.759-3.7288-.9794-7.547-1.6185-11.8118-2.5167-.2516-4.3923-3.6093-6.9813-6.3536-9.9785-1.4572-1.7552,1.9148-2.9294.2819-4.9517a6.85,6.85,0,0,0-1.4413-.9327c-2.9981-1.1837-6.19-1.0857-9.3341-1.333-8.3433-.6562-10.3551-2.5418-11.6986-11.0157-2.5807-3.1324-6.638-4.5454-10.1049-7.5159-.8247-4.24-3.4879-7.8974-6.7932-11.0019,3.2035-4.7274,9.98-3.3578,12.6424-8.3434l-.2049.191a2.03,2.03,0,0,0,1.6754-1.6721l-.176.232c4.4866-5.2,6.04-11.9887,9.5827-17.7456,2.498-4.0588,7.7677-6.17,8.0683-11.6658l-.1932.2142a1.62,1.62,0,0,0,1.6568-1.66l-.2014.1676c3.8343.7365,6.19-.9834,7.4672-4.4948Z" transform="translate(-448.351 -21.6589)"/><path id="Croatia" class="cls-1" d="M968.7145,857.0086c-15.5978-4.8807-31.3133-2.6676-47.5155-3.17-2.8623-.0888-5.8927-.5117-8.2283,1.8817l.172-.2023c-3.991,2.7161-1.9656,6.06-.5624,8.9148,3.8388,7.8083,7.9216,15.48,14.5977,21.4284,1.71,1.5236,2.75,3.799,4.3849,6.14-12.05,2.0519-19.31-4.6324-25.2878-10.9284-3.9783-12.3345-12.0925-21.657-15.2684-33.7245,11.6905,8.138,15.402-2.4328,21.222-7.6174.8344-11.154,6.27-14.0978,17.0291-8.7235,6.92,3.4568,13.3227,7.899,20.852,10.1845,5.17,1.569,10.173,3.4414,14.4285-1.1091,6.5043,2.0766-.8563,8.919,4.97,11.2851" transform="translate(-448.351 -21.6589)"/><path id="Serbia" class="cls-1" d="M972.2829,850.564c4.6489-4.2617-2.8657-6.9175-.9751-11.0209,11.9484-8.1841,23.1335-5.5536,28.5856,7.4171,2.5712,6.1171,10.8966,6.1627,12.1725,13.6654,1.19,7,8.2982,8.69,12.5857,11.6323,3.2592.1459,3.8092-2.624,6.0875-2.8893,3.5826,5.1908.0644,9.7279-1.1777,14.5261a26.7158,26.7158,0,0,0,8.315,15.9586c.1858,2.6239-2.7862,3.2545-2.3359,5.5133l.07-.0674c-6.4485,1.326-3.2217,7.1041-5.5627,12.1156-9.618,1.3276-20.541,1.7386-30.5935,7.5814-2.3557-5.911-6.0234-9.9281-11.5437-11.6638-3.317-1.0429-7.0942-2.595-9.1656,2.1923l-.0752.0623c-1.1589-.19-1.58.3587-1.4547,1.4541l.06-.0689c-2.778.0069-3.3229,3.42-5.8722,3.805-8.25-5.4479-8.7456-6.14-9.8789-14.0883,4.3411-6.8689,12.1758-9.8843,18.2689-14.9732.8188-2.5145-2.1247-3.6458-2.2285-6.0083l3.6468-4.1334c-1.23-3.6418-5-4.9364-6.352-8.1437-.8365-3.4612,2.7558-5.6006,2.6461-8.845.1273-2.367-1.7747-3.91-2.4787-5.754.19-2.1376,3.185-2.7722,2.2581-5.2159-1.63-2.47-2.0233-1.2024-3.8744.1614" transform="translate(-448.351 -21.6589)"/><path id="Latvia" class="cls-1" d="M1007.3907,573.1277a23.35,23.35,0,0,1,1.2133-15.197c2.4116-5.8494,4.7642-11.6456,5.3619-18.0409.3971-4.249,3.6642-6.1458,7.2139-7.3284,3.4226-1.14,6.9078-2.4062,10.9078-1.6273,4.0214,2.2232,6.6314,6.0169,8.9419,10.0094,3.85,6.6523,9.88,10.4934,15.0383,8.3865,7.85-3.2066,12.0261-7.2245,12.0069-15.44-.0073-3.1257-.9654-6.2583-.126-9.2379,9.2158-8.0408,16.5946-8.0112,24.9844.02,2.102,2.0121,4.0359,4.1991,6.1245,6.2259,2.2159,2.15,5.08,3.6245,7.9263,2.3686,6.2369-2.7521,10.7373,1.207,15.658,3.447,2.4432,1.1122,3.0935,3.5961,2.9139,6.194-.2163,3.1292-.4794,6.2552-.71,9.2247,1.7961,2.8622,4.3245,4.7753,5.5012,7.88,3.9973,10.547-2.1049,20.7454-13.35,21.0886-4.4828.1368-7.7626,2.33-12.78,4.9706a87.8329,87.8329,0,0,0-31.9271-20.6851c-7.0116,4.04-15.9719,1.066-24.8.8131-4.3589-.1248-8.717-.5652-13.0561-1.0407A34.8205,34.8205,0,0,0,1007.3907,573.1277Z" transform="translate(-448.351 -21.6589)"/><path id="Bulgaria" class="cls-1" d="M1131.788,886.3177c1.2655,3.3636,5.1874,1.9661,7.9939,4.8336-12.0178,4.3865-10.6165,18.4288-19.4669,24.91,1.3632,3.1255,4.7115.5206,5.8682,3.0936,1.4846,2.4475,1.4728,4.85-.163,6.73-2.2624,1.2989-3.85.5312-5.4286-.0364-7.7335-2.7817-15.3551-.9782-19.51,5.9985-4.2087,7.0663-10.3711,8.0011-17.4013,7.8259a7.8269,7.8269,0,0,1-2.8491-.5058c-10.4354-4.4993-20.97-5.16-31.75-1.2167-2.104.77-4.3135.0941-6.2718-.8936-2.4516-10.6155-12.36-19.4854-7.1992-31.7579l-.07.0674c3.18.3622,5.6752-.5729,7.4091-4.1272-3.6428-5.4644-10.692-9.3006-10.12-17.206.17-2.3562,1.9436-3.7432,4.2767-4.3173,2.4153,1.146.32,4.3708,2.5958,5.7464,15.4354,4.7253,31.3142,4.8541,47.2412,3.789,2.4909-.1666,5.0473-1.7134,7.2715-3.1047,10.59-6.6239,21.2987-6.9231,32.31-1.1654,1.6523.864,3.2713,2.2291,5.4071,1.448Z" transform="translate(-448.351 -21.6589)"/><path id="Hungary" class="cls-1" d="M940.8245,791.6185c.1757,2.4739,2.1275,2.8929,3.9744,3.5147,9.7658,3.2877,20.0118,1.0793,26.178-5.8979,6.06.0572,11.3506-4.4638,17.9227-3.8938,1.3227.1148,2.9193-1.56,4.2064-2.6294,7.3327-6.0942,14.3414-7.0277,22.6817-2.4674,2.2941,1.2544,4.6042,1.2263,6.9536,1.677,6.1288,1.1757,11.6134,3.4291,14.2777,9.7423l.0859-.1278c-3.5364-.2417-6.1219,1.0965-7.4672,4.4948l.2014-.1676a1.8193,1.8193,0,0,0-1.6568,1.66l.1932-.2142c-1.7008,1.2507-3.81,2.1916-5.0328,3.8047-5.8371,7.7025-12.8228,14.9079-12.6183,25.6067l.1758-.2321a1.7576,1.7576,0,0,0-1.6752,1.6722l.2049-.191c-11.69,3.0508-23.7617,4.0222-35.55,6.5363-5.651,1.2053-11.2886,2.4526-16.1827,5.9036-12.3667-2.8066-23.3686-7.6188-31.5561-17.6781a11.6431,11.6431,0,0,1-2.1228-10.9232,31.1123,31.1123,0,0,1,16.7061-20.2828Z" transform="translate(-448.351 -21.6589)"/><path id="Lithuania" class="cls-1" d="M1096.7854,607.8571c-4.3134-.9571-5.64,1.6922-6.088,5.184-.98,7.6388-5.8007,12.1586-12.57,14.4695a14.61,14.61,0,0,0-8.0855,5.8886c-8.748,1.2753-17,2.2509-22.5434-6.9185-2.1347-3.531-7.7156-3.1167-9.5162-7.3883-.5712-1.7681.5447-3.29.7358-4.95.6627-5.7615-1.6366-9.2789-7.3422-10.6313a38.3986,38.3986,0,0,0-6.5025-.5658c-6.2385-.3776-10.422-3.5624-12.5759-9.3507a48.3762,48.3762,0,0,1-2.25-7.6487c-1.9364-10.0429,3.0618-16.649,13.334-17.02a215.8566,215.8566,0,0,1,32.6728.92c5.6553.6544,11.6,1.941,17.2111-2.1068,3.3082,3.7308,7.677,5.2064,12.1919,6.9667,8.3987,3.2749,14.6514,9.4938,15.9376,19.0464a10.7526,10.7526,0,0,0,3.1517,6.1584c-5.4726.5468-7.2777,3.6392-7.6825,7.8744Z" transform="translate(-448.351 -21.6589)"/><path id="Czech" data-name="Czech Republic" class="cls-1" d="M891.2941,772.5763c-6.026.6714-10.8044-1.6817-14.902-5.9441-7.0182-7.3-15.9217-12.6871-21.53-21.4457-1.8916-2.9542-3.6517-5.7511-2.4232-9.4181,8.6958-8.8319,32.8745-18.1,46.9853-18.0862,2.5.2774,2.5633,2.9608,4.5515,3.9764,4.38.25,8.8948,1.0131,12.9436,3.474,5.331,8.59,5.8657,9.0634,12.9851,11.4973,2.6264-.0475,3.7181-3.1778,6.3768-3.16,10.8358,2.1761,22.2847,8.4225,27.369,14.939.0512,2.3971-1.8376,3.27-3.5094,4.1559-3.5052,1.8576-6.5283,4.0108-8.0636,7.9654a8.2337,8.2337,0,0,1-6.0653,4.85c-10.5207,2.3173-21.0051,5.3009-31.918,1.76-4.5805-1.4865-9.36-2.36-13.9325-3.4828-3.6833,1.6459-6.3548,3.8683-7.57,7.5627l.12-.1012c-1.0983-.0388-1.7283.3886-1.5818,1.589Z" transform="translate(-448.351 -21.6589)"/><path id="Austria" class="cls-1" d="M892.5909,771.2187c3.2368.1173,4.5979-3.4956,7.6524-3.9307,9.4389.6278,18.057,5.3568,27.5832,4.8338,3.3688,6.9055,5.0914,13.2923,5.2283,19.58-2.3978,3.7491-6.5348,3.2907-8.6081,5.2714-1.7973,2.031-1.6792,4.0483-1.6408,5.9573.1665,8.2929-3.9784,13.1844-11.8143,15.1929-13.8877,3.56-27.7035,7.1055-42.2951,3.6527-7.7021-1.8226-15.36-3.1185-19.0941-11.5515-9.7049-.2821-18.3563,2.6008-26.1729,5.8679-3.3767-.0465-4.742-2.7729-7.2551-3.0312-11.26,2.7734-14.2355.6624-12.8725-9.7161,14.8741,3.5619,28.9067-1.6513,43.1918-4.374,5.4176-1.0328,10.4573.2572,15.3547,2.0146,4.111-5.5842-.8909-9.7916-.54-14.5907,4.71-7.6828,14.2422-12.4073,22.5487-10.9782,3.0638.5271,5.7869.2777,7.4371-2.8408l-.1655.13c1.0769.0176,1.68-.4368,1.5819-1.589Z" transform="translate(-448.351 -21.6589)"/><path id="Estonia" class="cls-1" d="M1132.37,475.9444c-5.1857,8.0956-8.1388,15.49-10.9243,22.984-1.6909,4.5494-2.0808,8.6869.3814,13.1678,1.8069,3.2881,3.966,6.8446,1.7333,11.3487l-7.0961,5.0615c-4.8608-1.3221-9.413,3.002-14.7654,1.2291-8.6247-8.1132-16.1429-19.2826-30.3744-12.2-3.6411-3.8666.46-9.21-4.4384-12.0814l-6.3767,2.0659c-4.2735-1.609-5.517-5.4435-7.6684-9.1117,4.2417-5.1-3.88-9.9006-.0125-15.62a56.1374,56.1374,0,0,1,28.3245-11.1785,66.9769,66.9769,0,0,1,25.3838,2.1171C1114.5508,475.9047,1122.8117,475.1406,1132.37,475.9444Z" transform="translate(-448.351 -21.6589)"/><path id="Portugal" class="cls-1" d="M494.367,976.7058c4.344,7.7081,12.0483,14.7255,3.4553,22.5478-.2993,3.8252,1.9739,5.6017,2.222,8.6886-1.9446,5.563-5.6058,10.98-7.3364,17.27-.8437,3.0667-3.9762,4.9668-7.5881,4.3952-4.0236-.6366-8.2836-.6056-11.9928-3.6063a42.25,42.25,0,0,1,2.8754-23.7864c-4.0658-3.5557-7.5771-7.2525-12.81-7.14-1.6673-3.8845-.7966-6.9024.8134-9.6785,5.3539-9.2318,7.4056-19.43,9.0269-29.7792a15.852,15.852,0,0,1,1.0468-4.2006,12.5074,12.5074,0,0,0-.2212-11.7793c-1.5516-3.0782-3.1147-6.616-1.9916-10.1766,2.18-2.1817,4.6915-1.8289,7.2129-2.0106,6.6863,4.8579,13.6632,6.7013,21.3767,1.8144,3.1842-2.0175,6.7324-1.7425,9.3213,1.1515a8.4279,8.4279,0,0,1,.8011,10.8364c-6.7387,9.396-4.6923,20.8681-8.3749,30.927C500.9132,975.19,497.36,974.5463,494.367,976.7058Z" transform="translate(-448.351 -21.6589)"/><path id="Slovakia" class="cls-1" d="M981.5776,753.6c-.63,2.3587.7691,4.1746,1.3348,5.9185,3.1047,2.4168,6.0306,1.4648,8.43-.1243,13.8681-9.1853,26.7586-3.624,40.7595,2.1422-3.3532,6.7129-3.6238,14.6061-12.1254,16.84-12.9376-5.95-21.1016-4.8773-30.3111,3.7776-10.0376,1.2369-20.239,1.7143-27.5985,9.9068a33.179,33.179,0,0,1-21.2421-.4432l-.1-.0932c-.7733-3.4623-4.2475-4.9968-5.6462-8.1371-2.9666-6.66-1.5291-11.03,5.4033-12.7167,7.1705-1.7451,12.9133-4.4394,16.0279-11.8985,1.8647-4.4659,7.5317-5.4475,13.9972-3.8127,2.6395-1.5043,5.0055-3.719,8.2456-4.18l-.0782-.0538c-.0674,1.1063.5446,1.5355,1.5581,1.5649l-.15-.15c.0267,1.0308.4688,1.6444,1.5866,1.5794Z" transform="translate(-448.351 -21.6589)"/><path id="Bosnia-Herzegovina" class="cls-1" d="M912.9707,855.72c3.8346-.62,5.1959,3.0336,8.35,4.9185,1.4649-4.7443,5.1519-4.6923,9.1475-4.3076,14.85,1.43,29.66,3.0274,44.2313,8.537-8.7021,8.1523.82,16.0476.5557,24.4487-.5711,2.2666-3.3411.8008-4.4145,2.2957-2.0487,1.2679-.4318,4.3825-3.317,5.2691-7.5434,2.3182-8.9647,8.476-8.67,16.6853-7.4329-6.2443-15.9477-8.8272-19.8541-18.2978-2.3139-5.61-8.8088-9.3746-12.8839-14.4063-6.0652-7.4886-12.1927-15.09-12.9737-25.345Z" transform="translate(-448.351 -21.6589)"/><path id="Switzerland" class="cls-1" d="M751.266,810.4825c15.1506-9.2569,29.8783-12.77,46.5224-10.8216,2.1108,8.2157,1.9321,19.18,15.7812,17.9968-1.973,4.75-5.7473,6.249-9.1941,7.689-2.9474.321-4.5318-2.4-7.2714-2.24-3.9634,2.9523-4.316,10.8881-11.7579,9.384-2.5169-1.3651-2.17-4.5238-4.6516-6.0623-5.4995-.3974-7.2032,4.3137-9.4982,7.9048-4.06,1.7136-7.9529,2.8791-12.1511,1.855-3.821-2.2669-3.9376-7.232-7.8364-10.2252-2.2564-2.1192-6.1382.528-9.7047-1.86,4.5636-3.712,6.5887-8.9508,9.6559-13.5111Z" transform="translate(-448.351 -21.6589)"/><path id="Netherlands" class="cls-1" d="M751.1759,676.356c-.219,1.9949,2.3079,3.2379.8637,6.9046-2.904,4.8818-9.9206,6.3924-15.7328,9.5534.3716,5.2676,3.6361,10.2706-.5636,15.1122-10.1467,1.3537-16.3166-10.93-27.1343-7.33,1.9827-2.76,5.2639-2.071,7.0771-4.7711-3.079-3.5694-8.4982-.9556-11.866-4.3731,2.5036-9.1973,10.614-15.69,12.0081-25.4,3.8713.9834,2.8144,3.3115,2.7836,4.982-.0828,4.4865-.4333,9.3808,4.836,10.9889,4.8848,1.4908,8.9417-.8151,11.8751-5.0645.76-6.7831-2.857-10.892-8.1873-13.5795-1.1912-6.0515,1.5276-9.298,6.7514-10.4533,7.9669-1.7618,15.8029-2.1126,22.3437,3.6924,2.37,8.9825-4.2745,12.422-9.388,16.4527.3476,3.1314,1.5326,4.405,4.3778,3.3209Z" transform="translate(-448.351 -21.6589)"/><path id="Moldova" class="cls-1" d="M1112.7384,782.5835c8.383-4.3057,18.3144-2.56,26.4793,4.6832,5.1349-1.5143,8.34,2.94,12.4608,4.5794,1.43,3.05-1.6631,4.56-1.8534,8.007,5.1941,5.7288,8.1,14.1423,15.3524,19.6724-2.7562,6.8324-8.7749,2.2288-13.59,4.6758-5.5509,4.9009-5.5828,15.28-14.2163,19.198-2.1683-.991-1.8876-3.0733-2.0227-4.92a33.4439,33.4439,0,0,1-.1645-5.8181c1.5122-14.668-5.078-25.9642-14.3941-36.4426A48.125,48.125,0,0,1,1112.7384,782.5835Z" transform="translate(-448.351 -21.6589)"/><path id="Albania" class="cls-1" d="M978.7445,915.5247c13.2923.9629,17.79,5.4606,16.9145,18.8179-.541,8.25,4.2252,14.1742,7.1526,21.3314-4.6549,5.3383-6.6551,12.62-12.8145,18.0235-2.0481-4.8546-6.4119-6.8833-11.0314-9.72-1.8271-15.4781,1.5278-31.4163-1.6911-47.0055l-.06.0685c1.089.12,1.6582-.28,1.4543-1.4538Z" transform="translate(-448.351 -21.6589)"/><path id="Macedonia" class="cls-1" d="M1020.4046,921.7495c10.1859.1647,14.8762,3.0529,16.9907,10.4,1.647,5.7229-.4768,9.6532-6.258,10.8248-4.5214.9162-8.7246,2.0287-12.7555,4.6614-6.1883,4.0419-16.253,1.2617-18.9162-4.5219-3.4519-7.4965.2152-15.66,8.7189-18.2,2.6032-.7777,4.1891-3.3953,7.1285-3.1862C1017.0021,921.8477,1018.7068,921.7495,1020.4046,921.7495Z" transform="translate(-448.351 -21.6589)"/><g id="Italy"><path class="cls-1" d="M811.7413,830.387c1.4469-4.1566,5.8043-6.2924,6.9693-10.9409,3.9972.5784,7.2171-.7786,10.5608-2.3449,7.4966-3.5117,15.0567-3.6769,21.9521,1.6207,4.94,3.7954,11.5515,3.608,16.44,7.0591,1.9944,6.22,2.0509,7.3524.7146,13.5914-6.1137,3.9671-14.5915,3.8481-19.53,10.7313l2.33,9.6619c-5.0611,8.651-.0941,17.3646.3018,26.4133a19.3657,19.3657,0,0,1,21.0592,9.147,73.8524,73.8524,0,0,1,4.1137,10.0775c6.4869,17.2261,16.3873,23.9021,34.8184,23.4533,1.6543-.04,3.3936-.4463,4.92.8012,1.0853,2.39-2.2267,3.6324-1.5307,6.287,2.6148,3.5667,6.6986,5.6281,10.8009,7.7535,9.8828,5.1208,19.9406,10.0058,28.4739,17.31,2.3663,2.0253,5.3657,4.2829,2.9965,8.8339-3.9224-1.9174-5.2234-6.1076-8.6751-7.808a58.5688,58.5688,0,0,0-11.2915-4.2962c-5.5955,4.9254-10.5616,10.3706-13.8091,17.3065,4.5989,4.6324,11.9349,6.1626,11.137,13.8724-2.0316,3.8814-6.5793,4.19-9.6233,7.9357-1.8557,4.8809-3.8178,10.8864-9.1878,14.7778-4.4319-3.5608-4.17-5.1039,2.6887-16.9079-.304-8.1565-3.3176-15.8049-6.8937-23.253-.8127-1.6928-2.1027-3.9953-3.5951-4.38-7.0689-1.8218-11.021-6.5635-13.1436-13.514-7.0962-.7885-12.3555-4.2954-16.7779-9.42a10.8634,10.8634,0,0,0-7.9008-3.3679c-9.697-.2038-17.156-5.4662-23.8655-11.2238-8.9722-7.6991-17.0015-16.5059-25.328-24.9432a13.54,13.54,0,0,1-3.7927-8.4559c-.9553-9.6183-4.954-16.99-14.8778-20.2564-4.5506-1.4978-8.5283-4.553-13.2915-5.7426-6.9022,3.81-12.0112,10.0331-19.7,13.539-2.8476-6.7463-12.5088-5.2227-14.0136-11.2614-1.1644-3.5394,1.33-4.4834.8735-6.3234-.5245-2.8715-3.351-4.8376-3.1637-8.0417,1.0768-2.8242,4.7135-3.4331,5.6947-6.5336.4779-3.1753-2.7892-5.5008-2.3977-9.12,5.1467-3.8446,12.2313-1.96,17.0388-4.9436,2.6156-2.1281,2.4051-4.8157,3.3456-7.2792,6.4969,1.2044,7.9418,9.9892,15.178,10.1806,2.5739-4.2718,1.4353-10.1783,7.0376-13.0505C802.116,830.06,805.9677,832.5555,811.7413,830.387Z" transform="translate(-448.351 -21.6589)"/><path class="cls-1" d="M904.38,1009.594c-4.1166,7.5167-6.5254,13.6836-3.474,20.665.898,2.0545-.3246,4.2749-2.6031,5.7176a5.6317,5.6317,0,0,1-6.9042-2.0938c-3.0246-3.9845-7.39-5.1485-11.8773-6.3581a65.0171,65.0171,0,0,1-19.0679-8.6692c-2.1148-1.4029-4.6339-2.7241-5.08-6.2447,3.6377-.9237,7.5119-1.1484,10.4947-3.4424,6.4132,1.249,12.3792,3.2746,18.8815,2.16C890.633,1010.3193,896.6741,1010.2314,904.38,1009.594Z" transform="translate(-448.351 -21.6589)"/></g><path id="Slovenia" class="cls-1" d="M920.3514,819.9009c-1.486,6.0053-7.4574,6.7513-10.0168,10.68-1.5224,2.1552-.1989,4.7437-.6891,6.28-1.699,3.2325-4.82,2.3673-6.6143,4.0867-2.4724.9916-1.2632,3.9463-2.8181,5.51-3.1125.4865-5.314-2.2307-8.7314-2.2522-2.6.9091-5.0842,4.223-10.5832,1.2481a21.5751,21.5751,0,0,1-6.762-15.2381C876.583,828.0568,913.573,819.8461,920.3514,819.9009Z" transform="translate(-448.351 -21.6589)"/><g id="Turkey"><path class="cls-1" d="M1176.9907,1032.6079c-2.2637,6.7966-4.7235,12.7477-12.4612,14.1178-8.1547,1.4439-12.2423-2.8931-14.8721-9.4685-2.7357-1.0726-5.3505-1.7671-7.6054-3.08-2.05-1.1934-3.7091-3.0586-5.4219-4.5262-3.4738-1.5557-6.8882.0019-10.7093-.4494-2.0113-4.1794-7.0487-5.8642-9.7791-10.3935-1.07-2.2412,3.36-3.6893,1.6312-5.9493-.7333-3.5992-5.0091-2.5451-5.8575-5.4714-.6329-2.2723.7543-3.6,2.7006-4.7423l-2.773-4.3663,2.9125-5.4588c-.0443-3.7425-3.32-5.1762-4.192-7.9494-.8215-2.3941,1.9763-3.8262,1.6229-6.2157-4.0915-2.3322-8.4741,2.0234-13.0733-.7105-1.4187-4.5393.121-7.63,4.7276-10.1037,6.19-3.3236,12.814-4.365,19.588-4.98,3.8649-.3506,7.7645-.302,11.6457-.4921,6.6132-.3237,13.38.6615,18.9492-4.81,1.975-1.9407,5.6561-2.1451,9.314-3.4018-3.9121-2.8058-9.3225-2.2492-11.3659-7.96,12.2832-2.3231,24.0694,1.99,35.1772,1.6962,19.4667-18.0618,43.0938-19.8435,67.2376-20.6743,2.2985.884,2.4142,3.8853,4.43,5.432,4.0348,1.7551,7.8735,5.2367,12.9341,1.3517,5.8,11.1044,17.2086,9.5985,26.1648,13.0223a49.0124,49.0124,0,0,0,31.4733,1.61,16.827,16.827,0,0,1,8.6467-.1c10.9946,2.6164,21.0744.1671,30.7486-5.2373,7.9208-4.4248,16.68-5.1119,25.4339-4.1495,8.0326.8832,10.7882,8.2106,15.4419,13.46a14.83,14.83,0,0,0,3.0558,16.0511c3.7638,2.28,8.2475.2969,11.4406,3.2445a7.9889,7.9889,0,0,1,.07,6.1686c-1.3869,2.0638-4.3129,1.3489-5.848,3.9967,1.4035,10.0589,7.5106,20.2406,2.8761,31.2449,2.1938,3.2691,6.3653,5.1072,6.0185,9.675-2.6824,1.2718-38.6355,2.809-42.2317,1.6416-3.6568,2.6013-8.202,2.8923-12.8438,3.1428a93.5907,93.5907,0,0,0-28.4257,5.7361c-6.5236,2.4808-13.1323,3.2477-19.8982.9581a25.58,25.58,0,0,0-15.7926-.6c-7.2352,2.246-14.1434,3.5638-20.8569-.9715-7.4438,4.2568-1.0332,17.25-13.099,17.644-4.7345-5.7991,4.48-9.5008,3.44-14.9063-4.1026-2.747-4.1026-2.747-13.1585,2.355-2.2111.1619-4.1921-.8988-6.1547-1.7645-5.2564-2.319-9.9222-1.4195-14.2211,2.182-6.0583,5.0758-13.16,8.0326-20.6486,10.2341-4.7934,1.4092-8.71.4441-12.7785-2.7769C1200.9543,1038.2246,1189.8339,1033.9441,1176.9907,1032.6079Z" transform="translate(-448.351 -21.6589)"/><path class="cls-1" d="M1145.2249,944.2965c-4.6717.49-9.36.8594-14.011,1.501-5.5557.7663-10.9181,2.1026-15.0608,6.3451-2.5575,2.6191-5.5021,3.9437-9.1092,2.1644-7.2578-8.8748-7.2673-8.9461-1.8774-16.0309v-5.8974c6.5822-10.2892,15.1351-1.8015,22.5908-3.1281,2.6365,3.0333,5.0719,6.0046,7.6923,8.8026C1138.1,940.8839,1141.8771,941.9406,1145.2249,944.2965Z" transform="translate(-448.351 -21.6589)"/></g><g id="Greece"><path class="cls-1" d="M1002.2892,992.5274l6.0944-1.8292c-9.5285-3.6825-13.1166-10.3964-13.2973-19.08,5.897-5.2321,8.4613-12.4336,13.8424-17.4808,2.0341-2.0583,4.87-1.3146,8.2348-1.9419,5.339-7.9519,16.8538-3.0295,23.1006-10.0146a65.5458,65.5458,0,0,0,16.7865-2.8488,19.9555,19.9555,0,0,1,12.8961-.1343c6.9381,2.5009,14.0955,3.32,21.4137,3.54,3.9449.1187,7.9332.7676,7.5826,7.95-14.7855-2.6968-29.5074-4.0213-43.2258,1.9193-2.4646,2.6448-1.86,5.9279-3.4608,8.6984-2.9788,2.3509-6.4213,2.3466-9.9992,1.0054-2.6332-.9528-1.5832-4.6742-4.4394-5.6618-2.5843,2.68-3.76,5.9621-4.35,9.7487a53.3864,53.3864,0,0,1,5.1556,12.7962l6.8045,3.01c-2.5548,2.89-6.252-1.608-7.6151,1.32-1.994,2.837.2123,4.7253.2907,6.2982-.7429,1.7356-3.2616,1.4134-2.41,4.04,6.6916,5.1125,16.3888,6.754,21.3908,14.9232.9935,1.6227,2.1081,3.31,1.1269,5.9776-4.5354-2.6161-8.6831-5.7163-13.4082-7.8438-9.99-4.4982-20.3443-5.8656-31.2023-5.4472C1005.788,1001.7737,1004.01,1000.0628,1002.2892,992.5274Z" transform="translate(-448.351 -21.6589)"/><path class="cls-1" d="M1025.4649,1032.5532c-2.8434-1.2716-4.7908.9645-6.4019.47-4-2.9771-.3286-5.68-.6021-8.2024-1.29-4.9009-6.0816-6.8977-8.4665-10.7635,7.8379-9.3176,11.6761-10.1323,21.5519-4.28a48.1331,48.1331,0,0,1,8.8683,6.2521c2.65,2.5353,5.8748,3.8829,9.656,5.8182-5.2716,2.7675-9.0992-1.6735-14.1458-1.4348.44,6.02,6.1566,10.9225,3.4835,17.0126-1.8454,1.0376-2.653-1.0862-2.6342-1.0883-3.7023.1323-3.7144,2.9889-5.5128,3.63C1028.4459,1037.9608,1028.2453,1034.213,1025.4649,1032.5532Z" transform="translate(-448.351 -21.6589)"/></g><g id="Denmark"><path class="cls-1" d="M811.8647,579.0225c-11.34,3.4887-13.46,13.7433-9.4932,27.9739-5.5063,3.682-10.8118,2.0646-16.4564-.51-1.6126-5.9344-1.0152-12.9488-7.7421-16.3265-2.5958-11.7524-2.1112-23.3135-.38-34.8419.8608-5.7318,5.1934-8.9163,10.3413-9.9654a34.312,34.312,0,0,0,17.6907-9.2062c2.4873-2.4077,5.6754-4.4548,9.5149-3.9643,1.8722,3.1514,1.0209,5.9193.2827,8.7346a71.5819,71.5819,0,0,0-2.08,9.1833c-1.1983,9.6035.1437,11.9723,9.1784,16.1923C819.124,571.0949,808.181,569.5828,811.8647,579.0225Z" transform="translate(-448.351 -21.6589)"/><path class="cls-1" d="M851.47,577.4946c2.8694,3.0842,3.3657,5.8351,2.8706,8.9216-.889,2.5044-4.8841,1.2723-5.1213,3.7035a6.4121,6.4121,0,0,0,1.2092,6.9508c-.6778,2.7816-3.2905,2.3974-4.4472,3.7387-1.2,2.0763.7894,3.4538,1.9406,5.8021-6.6862-1.7676-10.7644-5.4134-14.7017-9.0974l-3.1155-11.2056C836.4153,581.3613,843.24,577.8479,851.47,577.4946Z" transform="translate(-448.351 -21.6589)"/></g><g id="France"><path class="cls-1" d="M703.76,736.3934c.62,1.7482.5691,2.3089.3388,2.8715-2.4887-1.5805-1.2882-4.7289-3.4053-6.6364-6.9778-1.0373-12.6307-4.5955-15.6085-11.303-2.5913-.6853-4.7055,1.0364-7.3948-.19-2.4531-.9051-1.9914-5.02-4.8763-6.2028-7.2583.6221-8.031.9849-13.1531,6.4742,2.0873,18.1917-14.5235,21.1275-25.4513,28.5651l-1.3823,6.1257c-12.8151,4.9071-23.6951.5636-34.7337-8.178,2.0259,9.9519,5.1409,17.6453,4.5212,26.2891-7.4576.2617-14.4691.2435-20.3406,1.8987-5.2982-1.5247-6.7038-7.1625-12.4659-7.2706-5.3258,7.0387-15.2006,3.6164-22.6012,7.4689,2.0322,3.8545,5.8543,4.8872,7.0617,8.2043.8232,2.2627-2.06,3.8831-1.0962,6.11,10.831,2.0971,20.2237,8.4227,31.5726,9.3308.1435,6.2309,4.9776,8.6692,8.9337,12.1725-.7077,12.9832,12.7833,14.8275,17.9549,21.5589-3.2358,21.7667-2.8111,42.8785-10.9657,63.04,4.6676.5608,4.7079,4.2514,6.0833,6.6331,9.064,4.3467,18.4133,4.7937,27.9529,4.8308,10.1576.0393,20.0852.4352,29.0656,7.1125,4.6261,3.44,11.1049,2.474,16.096-1.3608,2.0451-5.2151,2.3647-10.9542,7.4144-14.17,8.9607-5.7056,18.2491-8.7269,28.9079-4.7484,5.8872,2.1974,12.029,3.7265,18.0905,5.4343,1.8283.5152,3.8359,1.6333,5.6672.6068,8.8017-4.9337,17.6737-9.8137,24.28-17.7471.3564-.4279.1844-1.2958.2638-2.0081-6.9334-1.0488-11.7937-5.2228-12.5034-11.5709-.5149-4.6047-1.5892-8.5126-4.3757-12.1695,2.4845-2.6188,6.23-2.8927,7.9766-6.925-1.3361-4.8915-5.6869-10.2617-2.3671-15.9841-1.1952-4.3088-3.6035-6.25-6.6989-6.2383-4.1973.7091-6.2577,4.3622-10.0257,3.957l.1044.2143.0383-.1395a29.6011,29.6011,0,0,0,1.7794-10.0777c3.1752-1.5865,5.0249-4.2427,6.52-7.4038,1.1258-2.38,2.222-5.6989,6.2232-4.3758l.1059-.11c1.1681-3.3117,1.8464-7.2272,4.8641-9.1447,3.6484-2.3183,5.13-5.6116,6.3107-9.3153,2.0273-6.3614,3.3312-12.9689,7.8334-18.3489a6.4981,6.4981,0,0,0,1.2523-7.22c-8.3038-1.41-15.9031-5.6687-23.9084-8.7961-7.6145-2.9749-16.0663-3.36-23.1063-7.86-5.9429-2.916-10.387-8.5082-17.877-8.6617l.3464-1.4152c.5312-.3109,2.4237.1074,4.1964-.93Z" transform="translate(-448.351 -21.6589)"/><path class="cls-1" d="M796.7885,984.6366c-3.2706.6785-5.4552,3.0095-7.5281,4.7139-4.17,1.0242-6.3366-1.2065-8.9969-4.42,2.71-9.6749,3.2583-19.9382-1.3407-29.3272,4.03-5.5286,9.2615-6.49,14.3318-7.5567C802.0272,955.7516,803.3593,968.7077,796.7885,984.6366Z" transform="translate(-448.351 -21.6589)"/><path class="cls-1" d="M786.0265,916.5448a24.2315,24.2315,0,0,1,8.337-3.4085c6.0223,1.61,5.0052,6.3751,4.472,10.5227-.8843,6.8791-4.5668,11.0553-10.5323,12.1009C786.7769,929.4286,784.5849,923.2139,786.0265,916.5448Z" transform="translate(-448.351 -21.6589)"/></g><g id="Ireland"><path class="cls-1" d="M462.4617,700.0194c-.9129-4.1139-3.6755-6.1711-5.1727-8.8953-2.9492-1.235-5.8091.4114-8.938-.2024,3.5013-4.6408,9.3666-7.5073,8.8118-13.6832,3.6808-3.83,8.6515-3.9222,12.6938-6.2422-1.9788-2.8259-5.3131-1.1206-7.3782-4.8176-1.9874-5.3919,6.7531-5.7312,7.6964-10.8973-5.9974-4.7742-14.6961.0811-20.2841-5.5732.2568-6.1815,10.0742-5.7685,8.7935-12.621-1.9392-3.0227-5.2272-1.26-7.4423-2.5729,1.363-7.4973,6.2824-9.4585,13.9309-5.29,3.6533-4.0836,8.4246.0547,12.5031-1.093,2.1057-1.9839.1451-4.57,1.9174-6.7416,8.4095-.1152,10.0958,10.3756,17.4312,11.96,3.5909-1.5972,4.3473-6.0494,7.7791-7.25,17.8731,15.5147,16.8809,34.259,10.6611,53.2348-3.7345,2.8775-6.1394.65-8.5288.676-9.7805,1.92-17.1143,9.382-27.5913,12.1114C475.24,695.657,469.3662,697.7122,462.4617,700.0194Z" transform="translate(-448.351 -21.6589)"/><path class="cls-1" d="M505.6925,622.0632c-4.01,1.4135-5.1306,5.4561-8.5944,7.663-4.4736-1.0265-6.5756-4.5838-8.883-9.8275,9.5221-6.3026,15.46-18.103,27.9541-17.885,8.7889,3.8182,5.1687,13.5733,11.6893,16.8789-.048,5.9246-2.7528,10.1856-7.7259,11.4845C513.245,632.1761,509.2733,626.8655,505.6925,622.0632Z" transform="translate(-448.351 -21.6589)"/><path class="cls-1" d="M499.9359,598.3693c-2.8043,11.6453-9.2387,16.1927-20.2441,14.7814C481.48,604.3455,487.6616,599.7075,499.9359,598.3693Z" transform="translate(-448.351 -21.6589)"/></g><g id="Sweden"><path class="cls-1" d="M936.4463,157.1492c4.5812.4758,8.31,3.836,13.1408,4.0839,7.339-6.9028,4.6219-16.92,7.4-24.7889,9.98,4.6483,20.4574,5.8719,30.0357,9.9833a14.5458,14.5458,0,0,0,4.4773-5.6684c-2.3846-8.4022,8.5791-15.9706.8493-23.9991,2.0441-2.1336,3.409-1.48,4.4465-.4129,8.5038,8.749,18.7814,15.0509,29.0345,21.4387,8.1464,5.0754,14.0494,12.546,19.82,20.0121a14.2256,14.2256,0,0,1,2.5981,8.9831c-.32,12.26,2.2809,23.8615,6.9132,35.1534,1.3959,3.4026,1.0346,7.3152.2244,10.8217a51.6117,51.6117,0,0,0,1.019,27.312c.5714,1.86,1.1313,3.7322-.3029,6.3278-7.1624,1.857-14.2809.6681-21.3775-3.17l-6.2754,4.0787c.7667,7.6477-3.6749,12.6114-9.0571,17.6191-6.5469,6.0914-7.6359,15.3715-11.0205,23.2461-1.9792,4.6049,3.5958,7.4067,5.7461,10.8185-.0358,2.38-1.6293,3.6187-2.8054,5.1277-4.1288,5.2971-8.82,10.0632-11.5911,16.4894-2.5951,6.0193-8.868,8.6928-14.1272,12.1886-12.9337,8.597-25.6368,17.5357-32.7593,32.0375-2.4285,4.9443-7.7145,6.3334-11.6576,9.7328,2.4415,7.1011.7012,13.5815-1.7048,20.0138-4.1228,11.0218-4.3456,22.2686-2.0423,33.7161.7614,3.7841,2.65,6.3806,6.3768,7.0146,4.6277.7872,7.9562,3.5174,11.0486,6.6095,4.2706,4.27,8.4675,8.632,12.4266,13.1886,1.8926,2.1784,3.273,4.8643,2.4528,8.0232-2.1835,4.8047-8.2311,3.97-11.184,7.7715-.4805,3.0477,3.9343,3.5247,3.5449,6.682-1.0571,2.5757-3.2457.8657-5.3925,1.1379-1.8736,4.1709-4.1075,8.5061-10.1394,7.5811-5.49,7.3923-15.5081,11.391-16.5374,22.1336-.37,3.8669-.6717,7.755-1.3307,11.5772-2.4957,14.4763-5.2474,28.91-9.7623,42.9191-1.0988,3.4094-2.4554,6.8771-5.7215,9.36-5.8866,1.0527-11.8655-.5606-18.0705-1.02-2.2473,3.7813-5.112,6.4544-9.06,6.4887-4.4217,3.7582-3.1238,8.8868-4.5638,13.81-5.5406,1.16-10.8454,4.4893-17.7049,2.5272.3557-6.911-3.2765-12.45-6.1981-18.1233,3.656-9.0195,2.4263-16.8176-2.77-24.93-9.6465-15.0616-18.61-30.596-22.2042-48.5322a69.1259,69.1259,0,0,1-1.3677-11.3626c1.6946-2.844,3.5894,1.1777,5.5889-.4323,6.8467-8.9939,1.5448-21.478,10.6541-32.4623,10.706-7.53,7.3837-20.3767,4.8012-33.55,5.0271-3.5044,8.3214-8.2505,6.9261-16.2119-10.4365-7.14-10.2991-19-10.1815-30.8.0445-4.4608-2.2514-8.6262-2.1556-12.8247.2643-11.5879.796-23.3353,4.3563-34.43,3.8044-11.8554,9.5447-14.936,22.1112-13.7285,3.2463.3119,7.0969,2.0226,7.6547-3.5045l-.0539.0534c6.83-7.242.505-12.5341-2.8377-18.2988,2.1436-10.0617,8.5821-18.3476,11.5609-27.9775,3.0087-9.7268.5622-20.3282,3.7021-29.9536,4.6873-3.1981,10.5817-3.6322,13.9139-8.6088.5541-13.7392,12.267-22.54,16.3779-33.9682-.3719-5.1751-4.8675-7.6791-4.8467-12.2638,9.2541-4.5192,11.7948-13.3721,14.6147-22.0443l.0685-.0759c1.1548.2145,1.5457-.3344,1.4093-1.41l.0278-.0276c1.08.1355,1.6188-.27,1.4164-1.4164Z" transform="translate(-448.351 -21.6589)"/><path class="cls-1" d="M957.9508,543.5833c-5.0524-10.4806,2.5959-22.7472,14.1313-23.63.8432,3.9323-3.49,4.1181-4.9308,7.1039C965.4937,532.5779,964.5348,539.1957,957.9508,543.5833Z" transform="translate(-448.351 -21.6589)"/></g><g id="Finland"><path class="cls-1" d="M1136.25,71.1724c.5923,3.2847,3.5037,4.28,5.8026,5.8827,10.3653,7.2269,12.886,15.6679,5.9274,24.4712a17.2143,17.2143,0,0,0-3.3113,11.436c-.8881,3.4819-4.0257,3.8744-4.99,6.3463,1.64,10.0195-3.9608,20.3819,1.9081,31.5162,8.3045,6.1844,18.3708,12.6369,23.9718,24.3978l-16.4916,27.0213c3.7282,17.1912,15.8614,30.6029,17.9315,47.76-5.6971,7.4192-8.6057,15.3564-7.74,24.5109a23.6263,23.6263,0,0,0,2.2828,8.9933c2.6624,5.2129,6.8831,9.9639,5.45,16.7634-.4656,2.21,1.7081,4.4037,3.449,6.1728,2.0463,2.0795,4.0906,4.1793,4.67,7.3353-.54,6.286-7.3822,7.0892-10.52,11.6239,4.2,7.2319,9.3656,13.3637,17.0243,17.2015,9.698,4.86,12.3034,13.1435,7.9123,23.1818-3.1925,7.2982-9.3153,12.28-13.7881,18.5505-10.0321,14.0647-22.5307,25.8244-35.1048,37.5238-3.3739,3.1392-6.3794,6.6732-9.5732,10.0076-3.48,3.6337-7.5683,6.28-12.7377,6.21-7.2382-.0981-13.6535,3-20.4586,4.5947-16.4918,3.8635-31.8376,11.5309-48.6248,14.3053-2.1569.3565-4.3092.7634-6.5684-.0838-3.5737-3.2939-1.32-7.6282-1.3633-12.0749-4.7423.0789-8.5426,3.8538-12.9261,1.88-1.6215-1.1842-.5906-3.2584-1.8189-4.9922-4.063-1.6588-9.4869-.4921-13.5953-4.764-1.3-8.1344.1987-16.4975,2.1712-24.685,1.6-6.64,2.0488-12.8737-1.4191-19.017a14.267,14.267,0,0,1-1.4239-8.506,23.5466,23.5466,0,0,0-.817-9.38c-2.5475-8.019-3.23-15.499,3.7576-22.1,1.8958-1.7909,2.2273-5.2376,3.2728-7.9142,3.2207-2.5245,7.7663-1.17,10.8542-3.8584,1.4085-1.55,1.258-3.6257,1.85-5.4476,2.3917-7.361,5.4594-14.0326,13.97-16.2583,3.733-.9763,6.007-4.1782,7.9266-7.2287,4.6555-7.3982,10.5449-13.8264,15.7689-20.7723,2.19-2.9118,4.4471-5.8083,8.4825-7.24l6.5158.4811c2.1489-1.2505,1.7875-3.0458,1.7837-4.7055-.0174-7.6512-3.6777-14.4106-5.3763-21.653-.4561-1.945-2.2317-3.0672-4.0522-3.948-17.978-8.6988-20.6229-20.9-18.6273-36.15,1.0876-8.311,2.0771-16.2795-2.4131-24.02-1.4583-2.514-.3533-5.7442-.4307-9.2077-3.2026-3.2826-3.0363-7.8794-3.1268-12.5037-.18-9.2021-2.6255-17.1293-9.6407-24.1026a150.3467,150.3467,0,0,0-25.0945-19.61,117.36,117.36,0,0,1-17.7918-13.793c2.8892-2.7276,5.8772-.39,8.4679-2.0369l1.1745-4.7495c2.35-2.049,4.6484-2.3692,7.6171-1.8646,3.0221,5.2736,7.1387,9.9753,10.904,14.9423,8.4225,11.1108,13.8964,12.384,25.841,5.6037,1.0462-.5939,2.1726-1.0465,3.6085-1.73,3.4434,1.4166,7.0637,2.7431,10.5366,4.3821,3.2623,1.54,6.3687,3.4093,10.73,5.7781-.3476-11.029,7.9942-14.6169,15-19.5323a50.7447,50.7447,0,0,1,4.1271-28.593c2.2755-4.9683,5.46-8.25,10.8536-9.7638,7.4856-2.1012,14-6.5348,20.9092-9.4856,3.1115-.4407,4.1881,3.6577,7.2682,2.8Z" transform="translate(-448.351 -21.6589)"/><path class="cls-1" d="M1040.8937,503.3925c-4.37,3.7884-7.9524,6.3072-12.6434,6.4987-2.258-3.1783-1.3409-5.5373,1.32-6.9549C1032.9369,501.1423,1036.5633,500.2308,1040.8937,503.3925Z" transform="translate(-448.351 -21.6589)"/></g><path id="Luxembourg" class="cls-1" d="M741.0119,739.13c.0618,3.9429,4.436,8.6309-2.0239,11.8054-3.433-3.4515-3.6778-7.1846-2.3745-10.9347,1.4493-1.7678,3.0906.0348,4.3233-.9362Z" transform="translate(-448.351 -21.6589)"/><g id="Norway"><path class="cls-1" d="M881.0279,313.2058c-3.2727.8513-6.4509,1.3573-9.9234.4624a13.7142,13.7142,0,0,0-12.4071,2.71c-7.6715,6.499-14.1887,13.9829-14.4484,24.818-.2212,9.2279-.1117,18.4644-.1013,27.6971a168.1754,168.1754,0,0,0,1.8161,27.401c2.7627,5.125,7.5938,9.3321,11.0191,14.2779.6548,6.1853-3.4591,8.8279-8.0664,11.2178,1.98,13.6518,7.3226,27.8961-5.0815,35.8748-8.2617,9.7115-3.216,19.5908-7.6046,28.89-2.8254-5.4748-8.0617-5.146-11.963-7.3428-4.598-6.5778-.7683-14.4666-3.4377-21.2457-3.6589-1.4028-4.8513,1.016-5.938,3.57-1.4853,3.491-1.0485,7.1387-.9362,10.7842.1338,4.3455.549,8.8237-3.6169,12.7981-8.3517-2.4787-11.58,6.6982-18.19,8.7127-4.9133,13.1024-25.71,25.0365-43.4123,21.4552-3.6959-9.0332-15.4745-12.0741-18.4066-23.7479,4.0061,1.8945,6.9-2.4859,9.5608.23l6.2948-5.6641c-1.2817-2.1363-3.6648.08-5.48-1.5432l6.7069-16.5657c-8.2145-.4929-13.83,2.43-17.5243,8.741-2.3618.8218-4.3915,1.7442-7.061.3029,4.1138-8.96,15.0072-9.5224,21.5522-16.6193-3.6195-1.3693-6.9981.95-9.2717-2.6547,2.1151-3.6722,6.2762-7.1159,6.0413-12.8888-3.1921-.4624-4.4613,3.0266-7.2764,2.96-4.6111-5.2857,2.2608-11.0726-.54-16.6854-4.0174-1.61-9.9648-.5356-11.2109-7.1765,5.7921-3.1334,13.0312-.9084,19.0926-5.2877-7.3639-2.9275-14.7969-1.1971-22.5942-2.6669,3.4274-3.975,7.6871-3.7421,10.9593-5.5537-.6768-2.1071-3.0992-.8193-4.1616-2.1442,2.8758-4.8536-.2034-7.4572-3.893-9.9282,1.8679-4.4059,5.3081-5.1726,9.9715-4.2669l4.5968,4.2583c4.5074-3.06,10.597-.2444,15.8066-4.853-8.6592-3.0024-17.3917-1.14-25.7937-3.7693,3.24-6.4681,8.9484-4.23,14.6076-4.3814-1.9052-4.01-.8365-6.9293,3.2508-8.4032.9518,2.6216.3834,6.0422,4.0869,7.8572.5466-4.0946-1.63-6.01-4.2531-7.6753a5.5746,5.5746,0,0,1,7.0359-.6647c2.69,2.45.4928,5.9875,2.6079,8.4114,3.2505-.4925,3.7832-3.3145,5.0739-5.7914-2.7968-6.4784-8.6151-7.7756-14.9243-8.9041,6.5994-2.5035,13.4069-.7078,20-1.3192,2.2095-.3145.4168-2.7415,2.7-3.8667,3.7977-1.335,8.7475.4856,13.4187-.6412,1.4051-2.3077-1.7108-3.3261-1.2282-5.3764,1.5355-1.5055,2.96,1.3593,4.5453.3795,2.3705-3.4527-.9712-5.7634-1.8088-8.7019,5.3874-3.7363,12.6917-4.1523,16.31-9.6578,1.8025-1.8315-.8706-3.5615.7908-5.22,1.5332-1.3867,3.3422-2.47,5.6424-1.3354,2.0833,2.0466.2367,4.8112,1.5227,7.1032,2.2226,1.8981,4.8682,1.257,7.2906.9553,1.6694-.918-.3091-3.0851,2.9969-4.1791,1.3664-.4182,4.4939.7049,6.2437-.5495,3.1-2.1065,2.2019-5.1868,4.16-7.1,8.5932-5.6373,10.0167-4.7581,6.7192-14.33-6.3085-2.2841-9.6119,2.3367-13.3576,5.6524.2016,2.4715,2.5931,1.1261,3.58,2.66-3.056,3.9286-7.4293,4.9024-11.85,5.894-2.3372-2.01,1.4673-3.4957.6332-4.46-1.47-2.4412-3.8609-.9089-5.1087-3.0738,5.3915-2.3856,5.5731-7.8745,6.9511-12.5432,1.6465-5.5784,8.8059-4.8309,10.5943-10.1313,3.0726.2805,5.06,2.56,7.3386,4.1226,4.7283-1.1068,4.184-7.0142,8.3789-8.07-.9446-3.119-4.3446-.907-5.3678-3.169,5.2178-6.3351,10.7055-12.2584,17.81-16.6272a18.48,18.48,0,0,0,7.2033-8.0408c.4241-.42.8418-.8418.4517-1.4933-.7088-.4253-1.0506.0928-1.42.54-1.7918.65-3.1533,2.354-5.5955,2.1215-2.785-1.0524-4.5484-2.9828-3.9252-6.34,2.0242-2.3341,4.8459-.1578,6.97-1.5332.5474-2.7-2.6527-4.0642-2.302-6.6973.9742-3.89,1.435-8.0943,5.4391-11.0113l7.155,2.0219c-1.0707-3.0688-4.0677-4.2352-4.1436-7.6652,2.0841-5.2251,6.0527-4.4393,10.2775-2.1049a33.2207,33.2207,0,0,0,12.38-10.2009c-7.3634-.2568-13.8533,1.4524-20.6144-1.1738,3.8134-3.6186,8.18-5.1244,11.2372-7.077,2.09-2.1856-.6071-3.046-.0325-4.5461l3.79-1.7108-3.8643-2.6844,2.9147-1.1733c.7823-2.126-2.0125-2.8353-1.3106-5.8945,8.4766-7.8448,18.1127-13.2194,31.0631-5.6993-4.5-6.848-12.142-5.0814-18.1238-8.1248.94-4.02,4.3832-5.4423,7.1116-8.0563,3.915,2.8994,8.1337,3.8453,12.3751,5.053a7.8027,7.8027,0,0,0,3.7436-6.9609c-3.3232-2.1587-7.1553.8694-10.13-2.0542.7315-4.89,7.1693-1.292,8.1146-5.9944-4.6321-5.9459-9.6711,3.2937-15.7159-.3776,3.9662-4.5717,8.851-4.733,13.6742-4.9633,5.0473-.2411,10.2246.0278,13.8236-3.417,1.2246-2.8385-.2692-4.3583-1.3819-6.0073l2.6634-4.0728c.0461-2.3233-2.5084-3.3781-2.3245-4.0568,1.4514-4.7,5.9436-3.5183,6.9743-6.6837-1.2422-2.1731-4.5181-.0579-5.9125-3.7932,7.9011-4.79,15.7611-9.9143,26.078-10.625-.5306-4.1919-2.7824-6.897-5.9925-9.07,2.2784-4.6666,6.8452-5.5149,10.0477-7.461,3.4437-2.9387,1.8107-7.1361,3.0936-10.5011,2.9788.5542,1.2387,3.0731,2.8651,4.4125,5.7281-2.51,11.3652-2.2518,16.124,4.102,4.81-10.838,12.7871-19.1251,15.1631-30.5232,2.3952,8.5565-.3161,16.3549-1.9849,24.256-.4432.4622-.9168.9209-.1331,1.5152l.964-.706c3.2845-2.1923,3.36-6.207,5.065-9.1449,2.5349-1.0444,4.5857,1.543,7.1279.642-1.45-4.1674-5.461-7.9235-1.3368-13.0811,6.688,2.6758,11.6686-6.3687,18.1189-3.0554,3.7028.7248,4.0778,5.8729,8.848,4.1565a99.5585,99.5585,0,0,1-2.6765-17.0113c2.82-.0111,5.1573.7472,5.9371,3.5466,2.856.29,2.6726-3,4.7788-3.1571l-.1847.0159c-.3551,4.6722,5.4863,4.9575,6.2544,8.8345l-.0312.6335.642-.0261,8.2913-2.1778c.9723-4.0235-2.2672-7.0777-1.7-11.3324,5.8017-2.5077,2.6282-11.36,9.1814-14.0624,2.8755.0575,4.6291,3.8615,7.9413,2.3827-1.0432-9.4111,7-15.7144,7.1814-24.0964,6.0116-1.3653,5.3125,4.2734,8.106,5.7218,2.9065-1.2529,5.365-5.6977,9.5716-.7174-7.7023,9.2735-14.2461,19.2668-15.8574,31.5378a4.9761,4.9761,0,0,0,2.97,5.5324C1089.96,56.4339,1093.07,39.0739,1104.75,25.8c1.5928,6.1159.2184,9.288-3.42,11.4456-.1909,2.76,3.3817,2.09,3.4056,4.2745,1.11,3.1286-1.7842,6.1351-.2191,9.2324,6.9654-.4967,9.2763-2.1826,10.32-8.4166.9607-5.7386,2.4973-10.8906,8.735-12.9432-.85-3.85-5.7091-2.2339-6.2824-5.5968,7.05-3.4838,14.9179-2.6558,19.4066,2.1-1.1429,4.3681-5.3338,3.34-8.6023,4.7254-1.0414,2.8433-.7963,6.2994-2.905,9.0957,2.7592,1.1463,4.4646-1.6125,6.7559-.52.8365,2.9316-2.7845,5.0519-1.456,8.5537,5.338.1755,6.98-4.0281,8.5388-7.8537,2.046-5.0214,4.8609-9.1433,10.0337-11.7818,3.9094,8.7048,9.6978,13.59,19.1388,10.9563,2.2878,2.4989-.9194,3.7314-.4219,6.1625,6.73-1.4321,10.5454,3.3388,15.396,7.7935-5.9792,3.7566-11.56,7.4024-17.284,10.8091-3.6681,2.1832-7.3977,1.3817-11.1316-.3036-3.6185-1.6332-7.2326-3.9776-11.5966-2.1289.7963,2.6625,12.8284,15.3114,15.98,17.066.4138,2.8135-4.0927,3.663-2.6955,7.1263,2.904.5279,5.1938-2.2486,8.17-1.8321,2.7807,2.0859,3.8818,4.7943,3.2409,7.8071-2.1291,5.0281-7.3156,5.0662-10.6153,7.8024-3.4576,2.867-4.8664,7.0735-7.0364,11.4049-2.9617-2.6-1.8453-4.5918-.7669-6.7306,8.24-16.3426,4.6992-25.1282-13.1881-32.8756l-.104-.0965c-2.6131-3.6446-2.6131-3.6446-6.9057-6.2166a120.3319,120.3319,0,0,1-31.9822,13.0194c-3.56,12.4374-10.6607,23.773-7.2849,37.6878-6.5525,3.0353-12.5466,6.2465-14.3309,13.7109-7.3515.7006-11.4329-6.2309-17.8867-6.1716-3.1656-.4928-5.3262,1.7241-7.83,3.1092-7.4043,4.0955-12.4615,3.3735-18.0121-3.1243a137.2,137.2,0,0,1-10.9163-14.321c-3.2438-5.0031-7.1642-5.8287-12.4345-3.9349-6.73,2.4183-12.0881,7.8544-21.5119,7.7395,8.9577,11.2742.8113,20.4665.156,31.04-11.0276-1.7144-19.9948-8.8967-30.9589-10.1109-6.6481,6.4241-.9446,16.5063-6.7511,22.8626-2.895,1.1025-5.3238.2791-7.8923-.686-1.7929-.6737-4.27-1.86-5.1581,1.47l-.0644.0642c-1.1436-.2-1.6309.2581-1.4171,1.4171l-.0272.027c-1.1593-.2195-1.6011.2794-1.41,1.4108l-.0685.0759c-7.5357,6.3856-10.0171,16.6445-17.9413,22.1,1.0534,4.7488,4.6238,7.3131,5.3225,12.137-5.28,8.716-9.7135,18.6712-18.1482,25.9362.282,2.6374.5352,5.0054.7318,6.8438-2.0752,6.2969-7.7577,4.7164-12.224,6.5768-5.004,9.9817-1.3705,21.5325-5.0735,32.1689-3.6226,10.4057-9.4934,20.059-11.7745,31.255,5.5729,4.2688,7.9331,9.5142,6.622,16.0974Z" transform="translate(-448.351 -21.6589)"/><path class="cls-1" d="M885.3143,148.1626c4.4321-5.4066,5.14-5.755,17.0119-8.6068,1.5747-5.2108,1.5747-5.2108,5.7025-8.5729,1.5009-2.7333.9-6.84,4.6921-8.2261,2.6486.4732,1.8546,3.3313,3.5931,4.505,2.4322-.0887,2.9875-3.8372,5.85-3.2783,3.372,5.4587.5062,9.8939-11.9052,18.3807-1.0087-.0978-.9359-.775-.8446-1.5048.0812-.65.0932-1.308.1812-2.66-5.5013,3.32-11.4736,4.5165-15.92,8.95C891.7067,149.1139,888.9156,150.626,885.3143,148.1626Z" transform="translate(-448.351 -21.6589)"/><path class="cls-1" d="M940.8681,106.9562c-1.0866-4.5457.7-7.9036,2.606-11.208,1.9234-1.2012,3.7633-2.2852,6.3192-2.0255,4.009,4.2716-1.775,7.2236-1.2175,10.632A9.9854,9.9854,0,0,1,940.8681,106.9562Z" transform="translate(-448.351 -21.6589)"/><path class="cls-1" d="M976.3425,97.8836c-6.6266-7.9863-5.9282-13.8091,1.5013-16.88C981.1774,86.7085,979.01,91.7537,976.3425,97.8836Z" transform="translate(-448.351 -21.6589)"/><path class="cls-1" d="M894.2717,135.7375l4.2813-7.4581c-2.4493-2.4936-4.3752,1.8107-6.9026-.2442,1.5222-4.1547,6.4079-3.2064,8.5039-6.4111,3.9668,5.4479,1.8688,9.7376-.3133,13.8733C898.1209,136.73,896.5424,136.5279,894.2717,135.7375Z" transform="translate(-448.351 -21.6589)"/><path class="cls-1" d="M974.4453,68.1335c1.7,3.5394,1.51,6.1469.31,8.65-3.825.89-5.1755-1.5229-7.0883-3.9988C969.7475,70.98,972.6056,70.6111,974.4453,68.1335Z" transform="translate(-448.351 -21.6589)"/><path class="cls-1" d="M957.815,90.51c-1.2521-3.5738-.1823-6.42,1.9968-9.2382C964.0251,85.9216,963.7569,87.1029,957.815,90.51Z" transform="translate(-448.351 -21.6589)"/><path class="cls-1" d="M1056.1822,42.0952c-2.191-.9873-1.74-3.0763-2.5009-4.7716,2.7865-1.5731,4.1226-.0412,5.4131,1.6391C1059.1082,41.0364,1058.1089,42.0209,1056.1822,42.0952Z" transform="translate(-448.351 -21.6589)"/></g></svg>