<svg id="Speedometer" xmlns="http://www.w3.org/2000/svg" viewBox="0 0 223.336 172.0172"><title>speedometer</title><path d="M931.0761,775.5286a120.031,120.031,0,0,0,11.2511-51.016c0-63.5127-48.6523-115-108.668-115s-108.668,51.4873-108.668,115A120.0309,120.0309,0,0,0,736.2427,775.53Z" transform="translate(-721.9911 -606.5126)" style="fill:#414042"/><g id="metricLines"><g id="lines"><line x1="23.8148" y1="145.8032" x2="7.5245" y2="151.7324" style="fill:none;stroke:#f1f2f2;stroke-miterlimit:10;stroke-width:3px"/><line x1="18.942" y1="123.9475" x2="1.7094" y2="125.8348" style="fill:none;stroke:#f1f2f2;stroke-miterlimit:10;stroke-width:3px"/><line x1="19.4037" y1="101.56" x2="2.2163" y2="99.2973" style="fill:none;stroke:#f1f2f2;stroke-miterlimit:10;stroke-width:3px"/><line x1="25.1734" y1="79.9238" x2="9.0164" y2="73.6407" style="fill:none;stroke:#f1f2f2;stroke-miterlimit:10;stroke-width:3px"/><line x1="35.9203" y1="60.2791" x2="21.7197" y2="50.3357" style="fill:none;stroke:#f1f2f2;stroke-miterlimit:10;stroke-width:3px"/><line x1="51.0286" y1="43.7517" x2="39.5983" y2="30.718" style="fill:none;stroke:#f1f2f2;stroke-miterlimit:10;stroke-width:3px"/><line x1="69.6322" y1="31.2889" x2="61.6274" y2="15.912" style="fill:none;stroke:#f1f2f2;stroke-miterlimit:10;stroke-width:3px"/><line x1="90.6648" y1="23.6052" x2="86.5444" y2="6.7662" style="fill:none;stroke:#f1f2f2;stroke-miterlimit:10;stroke-width:3px"/><line x1="112.9211" y1="21.1408" x2="112.9211" y2="3.805" style="fill:none;stroke:#f1f2f2;stroke-miterlimit:10;stroke-width:3px"/><line x1="135.1252" y1="24.037" x2="139.2457" y2="7.198" style="fill:none;stroke:#f1f2f2;stroke-miterlimit:10;stroke-width:3px"/><line x1="156.0047" y1="32.1278" x2="164.0094" y2="16.7508" style="fill:none;stroke:#f1f2f2;stroke-miterlimit:10;stroke-width:3px"/><line x1="174.3627" y1="44.9495" x2="185.793" y2="31.9158" style="fill:none;stroke:#f1f2f2;stroke-miterlimit:10;stroke-width:3px"/><line x1="189.1471" y1="61.7672" x2="203.3477" y2="51.8239" style="fill:none;stroke:#f1f2f2;stroke-miterlimit:10;stroke-width:3px"/><line x1="199.5104" y1="81.617" x2="215.6675" y2="75.3339" style="fill:none;stroke:#f1f2f2;stroke-miterlimit:10;stroke-width:3px"/><line x1="204.8588" y1="103.3612" x2="222.0462" y2="101.0984" style="fill:none;stroke:#f1f2f2;stroke-miterlimit:10;stroke-width:3px"/><line x1="204.8856" y1="125.7534" x2="222.1183" y2="127.6407" style="fill:none;stroke:#f1f2f2;stroke-miterlimit:10;stroke-width:3px"/><line x1="199.5893" y1="147.5103" x2="215.8795" y2="153.4395" style="fill:none;stroke:#f1f2f2;stroke-miterlimit:10;stroke-width:3px"/></g><text  id="unit" transform="translate(90.7075 152.598)" style="font-size:18px;fill:#808285;font-family:MyriadPro-Bold, Myriad Pro;font-weight:700"><tspan style="letter-spacing:0.009982638888888888em">k</tspan><tspan x="9.9355" y="0">m/h</tspan></text><g id="numbers"><text transform="translate(22.3103 106.6096)" style="font-size:14px;fill:#f1f2f2;font-family:MyriadPro-Bold, Myriad Pro;font-weight:700">20</text><text transform="translate(37.5436 70.4299)" style="font-size:14px;fill:#f1f2f2;font-family:MyriadPro-Bold, Myriad Pro;font-weight:700">40</text><text transform="translate(30.2255 145.9378)" style="font-size:14px;fill:#f1f2f2;font-family:MyriadPro-Bold, Myriad Pro;font-weight:700">0</text><text transform="translate(68.2969 43.6501)" style="font-size:14px;fill:#f1f2f2;font-family:MyriadPro-Bold, Myriad Pro;font-weight:700">60</text><text transform="translate(105.151 34.6173)" style="font-size:14px;fill:#f1f2f2;font-family:MyriadPro-Bold, Myriad Pro;font-weight:700">80</text><text transform="translate(137.3745 45.5272)" style="font-size:14px;fill:#f1f2f2;font-family:MyriadPro-Bold, Myriad Pro;font-weight:700">100</text><text transform="translate(162.2617 72.4322)" style="font-size:14px;fill:#f1f2f2;font-family:MyriadPro-Bold, Myriad Pro;font-weight:700">120</text><text transform="translate(178.6588 109.4301)" style="font-size:14px;fill:#f1f2f2;font-family:MyriadPro-Bold, Myriad Pro;font-weight:700">140</text><text transform="translate(173.932 148.7674)" style="font-size:14px;fill:#f1f2f2;font-family:MyriadPro-Bold, Myriad Pro;font-weight:700">160</text></g></g><g id="imperialLines"><g id="lines-2" data-name="lines"><line x1="23.8148" y1="145.8032" x2="7.5245" y2="151.7324" style="fill:none;stroke:#f1f2f2;stroke-miterlimit:10;stroke-width:3px"/><line x1="18.1765" y1="113.8272" x2="0.8408" y2="113.8272" style="fill:none;stroke:#f1f2f2;stroke-miterlimit:10;stroke-width:3px"/><line x1="23.8148" y1="81.8512" x2="7.5245" y2="75.9221" style="fill:none;stroke:#f1f2f2;stroke-miterlimit:10;stroke-width:3px"/><line x1="40.0494" y1="53.7321" x2="26.7695" y2="42.5889" style="fill:none;stroke:#f1f2f2;stroke-miterlimit:10;stroke-width:3px"/><line x1="64.9223" y1="32.8612" x2="56.2544" y2="17.848" style="fill:none;stroke:#f1f2f2;stroke-miterlimit:10;stroke-width:3px"/><line x1="95.4334" y1="21.7561" x2="92.4231" y2="4.6837" style="fill:none;stroke:#f1f2f2;stroke-miterlimit:10;stroke-width:3px"/><line x1="127.9026" y1="21.7561" x2="130.913" y2="4.6837" style="fill:none;stroke:#f1f2f2;stroke-miterlimit:10;stroke-width:3px"/><line x1="158.4138" y1="32.8612" x2="167.0816" y2="17.848" style="fill:none;stroke:#f1f2f2;stroke-miterlimit:10;stroke-width:3px"/><line x1="183.2866" y1="53.7321" x2="196.5666" y2="42.5889" style="fill:none;stroke:#f1f2f2;stroke-miterlimit:10;stroke-width:3px"/><line x1="199.5213" y1="81.8512" x2="215.8115" y2="75.9221" style="fill:none;stroke:#f1f2f2;stroke-miterlimit:10;stroke-width:3px"/><line x1="205.1595" y1="113.8272" x2="222.4952" y2="113.8272" style="fill:none;stroke:#f1f2f2;stroke-miterlimit:10;stroke-width:3px"/><line x1="199.5213" y1="145.8032" x2="215.8115" y2="151.7324" style="fill:none;stroke:#f1f2f2;stroke-miterlimit:10;stroke-width:3px"/></g><text transform="translate(92.6239 152.5982)" style="font-size:18px;fill:#808285;font-family:MyriadPro-Bold, Myriad Pro;font-weight:700" id="unit">MPH</text><g id="numbers-2" data-name="numbers"><text transform="translate(25.8886 146.2448)" style="font-size:14px;fill:#f1f2f2;font-family:MyriadPro-Bold, Myriad Pro;font-weight:700">0</text><text transform="translate(28.9669 86.5543)" style="font-size:14px;fill:#f1f2f2;font-family:MyriadPro-Bold, Myriad Pro;font-weight:700">20</text><text transform="translate(64.5778 45.7228)" style="font-size:14px;fill:#f1f2f2;font-family:MyriadPro-Bold, Myriad Pro;font-weight:700">40</text><text transform="translate(117.5176 36.5866)" style="font-size:14px;fill:#f1f2f2;font-family:MyriadPro-Bold, Myriad Pro;font-weight:700">60</text><text transform="translate(164.3108 63.1352)" style="font-size:14px;fill:#f1f2f2;font-family:MyriadPro-Bold, Myriad Pro;font-weight:700">80</text><text transform="translate(178.2718 117.4636)" style="font-size:14px;fill:#f1f2f2;font-family:MyriadPro-Bold, Myriad Pro;font-weight:700">100</text></g></g><g id="Motorway"><line x1="112.0127" y1="114.6684" x2="29.5884" y2="144.6685" style="fill:#fff"/><polygon points="113.381 118.427 29.588 144.668 110.645 110.91 113.381 118.427" style="fill:#be1e2d"/></g><g id="Rural"><line x1="111.6717" y1="114.7925" x2="29.2474" y2="144.7926" style="fill:#fff"/><polygon points="113.04 118.551 29.247 144.793 110.304 111.034 113.04 118.551" style="fill:#ffde17"/></g><g id="Urban"><line x1="111.668" y1="114.7939" x2="29.2437" y2="144.7939" style="fill:#fff"/><polygon points="113.036 118.553 29.244 144.794 110.3 111.035 113.036 118.553" style="fill:#00a651"/></g><circle cx="111.668" cy="113.8272" r="10" style="fill:#bcbec0"/><path d="M833.6591,609.5126c60.0157,0,108.668,51.4872,108.668,115a120.0307,120.0307,0,0,1-11.251,51.016l-194.8333.0012a120.0306,120.0306,0,0,1-11.2516-51.0172c0-63.5128,48.6523-115,108.668-115m0-3c-29.86,0-57.9232,12.2958-79.02,34.6223-21.0531,22.28-32.6476,51.8906-32.6476,83.3777a122.3057,122.3057,0,0,0,11.535,52.29l.8092,1.7272h1.9075l194.8333-.0012h1.9073l.8093-1.7272a122.3079,122.3079,0,0,0,11.5344-52.2888c0-31.4871-11.5945-61.0978-32.6476-83.3777-21.0972-22.3265-49.1605-34.6223-79.02-34.6223Z" transform="translate(-721.9911 -606.5126)" style="fill:#6d6e71"/></svg>